<svg width="28" height="25" viewBox="0 0 28 25" fill="none" xmlns="http://www.w3.org/2000/svg">
<g clip-path="url(#clip0_19_16)">
<path d="M0.535465 18.9215L10.3177 2.28618L10.3564 2.22566C10.763 1.5743 11.3117 1.02001 11.9629 0.602926C12.5799 0.21365 13.2966 0.00457913 14.0296 2.95523e-06C14.7663 -0.000907432 15.4874 0.208541 16.1055 0.602926C16.754 1.02136 17.299 1.57738 17.7005 2.23014C17.7294 2.27796 17.7567 2.32503 17.7825 2.37135L27.4053 18.8094L27.4599 18.908C27.8201 19.617 28.0051 20.3995 28 21.192C27.9953 21.8464 27.8254 22.4895 27.5055 23.0635C27.1456 23.704 26.5944 24.2204 25.9264 24.5428C25.8831 24.5652 25.8375 24.5831 25.7943 24.601C25.1402 24.881 24.4313 25.0149 23.7184 24.9933H4.01268C3.96255 24.9933 3.91242 24.9933 3.86457 24.9933C3.38193 24.9895 2.90373 24.9022 2.45181 24.7355C1.73317 24.4678 1.11579 23.9888 0.683577 23.3638C0.248205 22.7296 0.0106154 21.9841 -1.7037e-05 21.2188C-0.0112662 20.5492 0.110247 19.8838 0.35773 19.2599C0.403307 19.1411 0.462152 19.0275 0.533186 18.9215H0.535465Z" fill="#1A1A1A"/>
<path fill-rule="evenodd" clip-rule="evenodd" d="M2.05077 19.892L11.8763 3.17383C13.0703 1.32472 14.9616 1.27765 16.1761 3.17383L25.8444 19.6903C26.6169 21.2167 26.234 23.2765 23.7184 23.2249H4.01269C2.35839 23.2653 1.29198 21.8375 2.05077 19.892Z" fill="#FFEF11"/>
<path d="M13.1182 18.5337C13.3278 18.3283 13.6048 18.2028 13.8997 18.1796C14.0849 18.1666 14.2708 18.1932 14.4446 18.2574C14.6185 18.3216 14.7761 18.422 14.9069 18.5516C15.1236 18.7634 15.2548 19.0453 15.276 19.3451C15.2866 19.4504 15.2835 19.5566 15.2669 19.6611C15.2471 19.7646 15.215 19.8654 15.1712 19.9615C15.0398 20.2492 14.8019 20.4768 14.5059 20.598C14.3398 20.664 14.1619 20.696 13.9828 20.6921C13.8038 20.6883 13.6275 20.6486 13.4645 20.5756C13.1735 20.4443 12.9444 20.2086 12.8242 19.9166C12.7849 19.8255 12.7574 19.7298 12.7422 19.632C12.7264 19.5342 12.7218 19.4349 12.7285 19.3361C12.7469 19.1808 12.7907 19.0294 12.8584 18.8878C12.9188 18.7545 13.0074 18.6353 13.1182 18.5382V18.5337ZM14.9753 16.2386C14.932 17.3122 13.0817 17.3144 13.0407 16.2386C12.8538 14.3984 12.3753 10.03 12.389 8.29972C12.4049 7.76627 12.8447 7.45249 13.4281 7.33145C13.6145 7.29272 13.8049 7.27468 13.9954 7.27766C14.1868 7.27629 14.3778 7.29508 14.5651 7.3337C15.1598 7.45697 15.6247 7.78196 15.6247 8.32885V8.38265L14.9753 16.2386Z" fill="#1A1A1A"/>
</g>
<defs>
<clipPath id="clip0_19_16">
<rect width="28" height="25" fill="white"/>
</clipPath>
</defs>
</svg>
