<svg width="18" height="17" viewBox="0 0 18 17" fill="none" xmlns="http://www.w3.org/2000/svg">
<g clip-path="url(#clip0_23_14)">
<path fill-rule="evenodd" clip-rule="evenodd" d="M13.3447 1.31483C14.2589 0.420934 15.7411 0.420936 16.6553 1.31484C17.5696 2.20873 17.5696 3.65803 16.6553 4.55192L9.4833 11.5646C9.46845 11.5791 9.45375 11.5935 9.43912 11.6078C9.22357 11.819 9.03345 12.0052 8.80433 12.1425C8.60303 12.2632 8.3835 12.352 8.15392 12.4059C7.89262 12.4672 7.62352 12.467 7.31836 12.4667C7.2977 12.4667 7.27688 12.4667 7.25589 12.4667H5.99998C5.58577 12.4667 5.24998 12.1384 5.24998 11.7334V10.5054C5.24998 10.4849 5.24996 10.4645 5.24994 10.4443C5.24966 10.1459 5.24941 9.88282 5.31215 9.62733C5.36727 9.40286 5.45818 9.18821 5.58155 8.99138C5.72197 8.76735 5.9124 8.58145 6.12839 8.37069C6.14301 8.35639 6.15775 8.34202 6.1726 8.3275L13.3447 1.31483ZM15.5947 2.35192C15.2663 2.0308 14.7337 2.0308 14.4053 2.35192L7.23325 9.36458C6.94858 9.64295 6.89609 9.70096 6.8605 9.75772C6.81938 9.82335 6.78908 9.89485 6.7707 9.96972C6.7548 10.0345 6.74998 10.1118 6.74998 10.5054V11.0001H7.25589C7.65847 11.0001 7.73752 10.9954 7.80375 10.9798C7.88032 10.9619 7.95345 10.9322 8.02058 10.892C8.07863 10.8572 8.13795 10.8059 8.42265 10.5275L15.5947 3.51484C15.9231 3.1937 15.9231 2.67305 15.5947 2.35192ZM5.06903 2.20004H8.25C8.66422 2.20004 9 2.52837 9 2.93338C9 3.33839 8.66422 3.66671 8.25 3.66671H5.1C4.45757 3.66671 4.02085 3.66728 3.68328 3.69425C3.35447 3.72051 3.18632 3.76813 3.06902 3.82657C2.78678 3.96718 2.5573 4.19156 2.41349 4.46752C2.35373 4.58222 2.30503 4.74664 2.27816 5.06814C2.25059 5.3982 2.25 5.82522 2.25 6.45338V12.6134C2.25 13.2416 2.25059 13.6686 2.27816 13.9986C2.30503 14.3202 2.35373 14.4846 2.41349 14.5993C2.5573 14.8752 2.78678 15.0995 3.06902 15.2402C3.18632 15.2986 3.35447 15.3462 3.68328 15.3725C4.02085 15.3995 4.45757 15.4001 5.1 15.4001H11.4C12.0424 15.4001 12.4792 15.3995 12.8168 15.3725C13.1456 15.3462 13.3137 15.2986 13.431 15.2402C13.7132 15.0995 13.9427 14.8752 14.0865 14.5993C14.1463 14.4846 14.195 14.3202 14.2218 13.9986C14.2494 13.6686 14.25 13.2416 14.25 12.6134V9.53339C14.25 9.12837 14.5858 8.80006 15 8.80006C15.4142 8.80006 15.75 9.12837 15.75 9.53339V12.6437C15.75 13.234 15.75 13.7212 15.7168 14.118C15.6824 14.5303 15.6085 14.9092 15.423 15.2651C15.1354 15.817 14.6764 16.2658 14.112 16.547C13.7479 16.7283 13.3604 16.8006 12.9389 16.8343C12.533 16.8667 12.0347 16.8667 11.431 16.8667H5.06901C4.46529 16.8667 3.96702 16.8667 3.56113 16.8343C3.13956 16.8006 2.75203 16.7283 2.38803 16.547C1.82354 16.2658 1.3646 15.817 1.07699 15.2651C0.89151 14.9092 0.81759 14.5303 0.783143 14.118C0.749983 13.7212 0.749991 13.234 0.75 12.6437V6.42309C0.749991 5.83278 0.749983 5.34558 0.783143 4.94871C0.81759 4.5365 0.89151 4.15759 1.07698 3.80167C1.3646 3.24973 1.82354 2.80099 2.38803 2.51976C2.75203 2.33841 3.13956 2.26613 3.56113 2.23246C3.96703 2.20003 4.4653 2.20003 5.06903 2.20004Z" fill="#A8A8A8"/>
</g>
<defs>
<clipPath id="clip0_23_14">
<rect width="18" height="17" fill="white"/>
</clipPath>
</defs>
</svg>
