<svg width="559" height="387" viewBox="0 0 559 387" fill="none" xmlns="http://www.w3.org/2000/svg">
<path d="M558.23 182.56C558.23 82 433.27 0 279.11 0C124.95 0 0 82 0 182.56C0 185.16 0 192.34 0 193.26C0 299.96 109.23 386.37 279.1 386.37C450.03 386.37 558.26 299.98 558.26 193.27L558.23 182.56Z" fill="#2D3277"/>
<path d="M547.55 182.47C547.55 277.29 427.39 354.15 279.15 354.15C130.91 354.15 10.78 277.29 10.78 182.47C10.78 87.65 130.94 10.78 279.15 10.78C427.36 10.78 547.55 87.65 547.55 182.47Z" fill="#F7D032"/>
<path d="M190.04 128.3C189.91 128.58 187.23 131.3 188.95 133.57C193.2 138.98 206.28 142.09 219.51 139.12C227.38 137.35 237.51 129.32 247.26 121.56C257.86 113.14 268.38 104.71 278.94 101.35C290.14 97.7801 297.3 99.3501 302.04 100.76C307.24 102.31 313.36 105.76 323.1 113.04C341.48 126.84 415.32 191.3 428.1 202.45C438.37 197.8 484.04 178.14 546.1 164.45C540.7 131.36 520.58 101.09 490.1 76.3201C447.46 94.1901 395.51 103.52 344.67 78.6801C344.41 78.5801 316.9 65.5501 289.75 66.1901C249.46 67.1301 231.96 84.5901 213.46 103.06L190.04 128.3Z" fill="white"/>
<path d="M425.07 209.45C424.2 208.68 338.25 133.45 318.77 118.83C307.51 110.37 301.23 108.22 294.65 107.39C290.796 107.071 286.915 107.44 283.19 108.48C274.12 110.94 262.27 118.86 251.77 127.2C240.87 135.88 230.6 144.05 221.08 146.2C208.91 148.93 194.08 145.71 187.27 141.13C184.853 139.652 182.905 137.52 181.65 134.98C179.16 129.16 183.76 124.52 184.53 123.75L208.24 98.09C211 95.33 213.78 92.58 216.63 89.88C209.317 90.97 202.094 92.5977 195.02 94.75C186.42 97.16 178.15 99.46 169.79 99.46C166.29 99.46 147.59 96.39 144.04 95.46C122.57 89.58 103.73 83.87 75.5999 70.73C41.8699 95.82 19.3099 127.21 12.7999 161.79C17.6399 163.08 25.4599 165.4 28.7299 166.12C105.04 183.12 128.82 200.58 133.13 204.23C135.662 201.37 138.811 199.123 142.339 197.658C145.866 196.192 149.68 195.547 153.493 195.77C157.307 195.994 161.019 197.08 164.352 198.947C167.684 200.815 170.549 203.414 172.73 206.55C177.876 202.387 184.301 200.126 190.92 200.15C194.633 200.185 198.316 200.83 201.82 202.06C205.221 203.149 208.351 204.95 211.001 207.343C213.652 209.736 215.761 212.667 217.19 215.94C220.521 214.427 224.142 213.659 227.8 213.69C232.177 213.746 236.496 214.699 240.49 216.49C254.57 222.49 256.75 236.34 255.49 246.76C256.486 246.644 257.487 246.587 258.49 246.59C263.721 246.588 268.864 247.943 273.414 250.524C277.965 253.104 281.768 256.822 284.451 261.312C287.135 265.803 288.607 270.913 288.725 276.143C288.842 281.373 287.6 286.544 285.12 291.15C289.64 293.69 301.23 299.47 311.38 298.15C319.5 297.15 322.58 294.34 323.69 292.79C324.43 291.7 325.24 290.47 324.5 289.56L303 265.6C303 265.6 299.45 262.26 300.62 260.96C301.79 259.66 304.02 261.54 305.57 262.83C316.57 271.98 329.92 285.83 329.92 285.83C330.14 285.99 331.03 287.72 335.98 288.61C340.23 289.38 347.76 288.93 352.98 284.61C354.352 283.459 355.605 282.172 356.72 280.77C356.649 280.846 356.568 280.914 356.48 280.97C361.98 273.92 355.86 266.8 355.86 266.8L330.73 238.56C330.73 238.56 327.13 235.25 328.36 233.91C329.44 232.75 331.77 234.5 333.36 235.8C341.36 242.46 352.57 253.74 363.36 264.3C365.47 265.84 374.94 271.71 387.48 263.47C395.1 258.47 396.62 252.34 396.41 247.71C395.88 241.59 391.1 237.22 391.1 237.22L356.76 202.7C356.76 202.7 353.13 199.61 354.41 198.04C355.46 196.73 357.81 198.63 359.35 199.91C370.35 209.07 399.91 236.22 399.91 236.22C400.32 236.51 410.55 243.79 423.21 235.74C427.72 232.86 430.62 228.51 430.87 223.44C430.969 220.829 430.505 218.227 429.509 215.812C428.514 213.396 427.01 211.223 425.1 209.44" fill="white"/>
<path d="M258.51 253.21C253.19 253.15 247.36 256.32 246.61 255.85C246.17 255.57 246.93 253.44 247.43 252.2C247.93 250.96 254.95 229.89 237.85 222.55C224.78 216.94 216.78 223.25 214.02 226.12C213.32 226.86 213.02 226.8 212.91 225.84C212.64 222.05 210.91 211.76 199.65 208.33C183.53 203.39 173.14 214.64 170.53 218.7C169.984 214.533 168.048 210.672 165.037 207.742C162.025 204.811 158.113 202.981 153.933 202.548C149.753 202.115 145.549 203.104 142.001 205.356C138.452 207.607 135.767 210.989 134.378 214.956C132.989 218.922 132.978 223.241 134.347 227.214C135.716 231.187 138.385 234.582 141.922 236.852C145.46 239.121 149.659 240.131 153.841 239.718C158.023 239.306 161.944 237.496 164.97 234.58C165.07 234.69 165.11 234.86 165.07 235.22C164.28 239.85 162.83 256.68 180.45 263.54C187.51 266.27 193.53 264.24 198.51 260.74C199.99 259.69 200.23 260.13 200.02 261.53C199.38 265.86 200.19 275.12 213.18 280.4C223.08 284.4 228.93 280.31 232.75 276.75C234.43 275.24 234.88 275.48 234.97 277.84C235.18 282.449 236.738 286.895 239.452 290.627C242.165 294.359 245.915 297.211 250.235 298.831C254.556 300.45 259.257 300.766 263.755 299.738C268.253 298.71 272.35 296.384 275.538 293.048C278.726 289.713 280.864 285.515 281.687 280.975C282.511 276.435 281.983 271.753 280.17 267.51C278.356 263.268 275.337 259.651 271.487 257.109C267.636 254.566 263.124 253.211 258.51 253.21Z" fill="white"/>
<path d="M258.51 298.64C252.875 298.673 247.447 296.514 243.374 292.62C239.301 288.726 236.9 283.401 236.68 277.77C236.68 276.77 236.55 274.11 234.29 274.11C233.266 274.231 232.322 274.726 231.64 275.5C229.04 277.92 225.74 280.36 220.92 280.36C218.486 280.309 216.085 279.786 213.85 278.82C201.39 273.82 201.23 265.22 201.73 261.82C201.853 261.375 201.875 260.908 201.795 260.453C201.716 259.999 201.536 259.567 201.27 259.19L200.51 258.52H199.73C198.936 258.574 198.18 258.879 197.57 259.39C194.53 261.732 190.826 263.052 186.99 263.16C184.968 263.141 182.966 262.744 181.09 261.99C164.69 255.61 165.97 240.13 166.77 235.47C166.855 235.08 166.835 234.675 166.712 234.295C166.589 233.916 166.368 233.576 166.07 233.31L164.9 232.31L163.82 233.36C161.062 236.031 157.483 237.693 153.663 238.077C149.842 238.46 146.004 237.543 142.77 235.474C139.536 233.405 137.095 230.305 135.842 226.675C134.589 223.046 134.598 219.1 135.867 215.476C137.136 211.853 139.591 208.763 142.835 206.709C146.078 204.654 149.92 203.754 153.738 204.155C157.557 204.556 161.128 206.234 163.875 208.917C166.621 211.6 168.381 215.132 168.87 218.94L169.46 223.5L171.97 219.63C172.25 219.18 179.14 208.77 191.79 208.79C194.3 208.803 196.794 209.19 199.19 209.94C209.27 213.02 210.98 222.18 211.25 225.94C211.43 228.16 213.01 228.27 213.32 228.27C213.704 228.249 214.079 228.149 214.423 227.977C214.767 227.805 215.072 227.564 215.32 227.27C216.936 225.588 218.877 224.253 221.027 223.347C223.176 222.44 225.488 221.982 227.82 222C231.062 222.058 234.257 222.78 237.21 224.12C253.21 231 245.98 251.38 245.89 251.59C244.51 254.96 244.46 256.44 245.76 257.31L246.38 257.61H246.86C247.926 257.483 248.969 257.211 249.96 256.8C252.691 255.72 255.578 255.085 258.51 254.92C261.421 254.858 264.314 255.377 267.022 256.448C269.729 257.519 272.195 259.12 274.276 261.156C276.356 263.193 278.009 265.624 279.138 268.308C280.266 270.992 280.848 273.874 280.848 276.785C280.848 279.696 280.266 282.578 279.138 285.262C278.009 287.946 276.356 290.377 274.276 292.414C272.195 294.45 269.729 296.051 267.022 297.122C264.314 298.193 261.421 298.712 258.51 298.65M428.4 200.45C401.92 177.35 340.72 124.14 324.15 111.71C314.67 104.59 308.23 100.82 302.55 99.13C299.119 98.052 295.546 97.4991 291.95 97.49C287.365 97.5412 282.815 98.2967 278.46 99.73C267.75 103.13 257.08 111.61 246.76 119.81L246.23 120.23C236.62 127.88 226.68 135.78 219.16 137.47C215.877 138.202 212.524 138.574 209.16 138.58C200.74 138.58 193.16 136.14 190.33 132.52C189.86 131.92 190.17 130.95 191.27 129.52L191.4 129.33L214.7 104.23C232.93 86 250.16 68.8 289.82 67.89H291.82C316.51 67.89 341.21 78.96 343.97 80.24C367.12 91.54 390.97 97.24 415.03 97.29C440.03 97.29 465.9 91.1 493.03 78.6C490.03 76.05 486.84 73.6 483.59 71.13C459.74 81.47 437 86.69 415.07 86.68C392.67 86.68 370.3 81.29 348.57 70.68C347.43 70.12 320.16 57.28 291.8 57.27H289.57C256.26 58.06 237.48 69.88 224.86 80.27C212.59 80.57 202 83.54 192.57 86.15C184.17 88.5 176.91 90.53 169.81 90.52C166.91 90.52 161.65 90.25 161.19 90.24C153.04 89.99 112 79.93 79.3699 67.56C76.0399 69.93 72.8299 72.37 69.7099 74.85C103.81 88.85 145.31 99.63 158.4 100.48C162.04 100.72 165.92 101.13 169.8 101.15C178.46 101.15 187.11 98.72 195.47 96.37C200.47 94.98 205.88 93.48 211.62 92.37C210.08 93.86 208.56 95.37 207.02 96.92L183.36 122.53C181.5 124.4 177.45 129.41 180.12 135.6C181.492 138.447 183.65 140.841 186.34 142.5C191.99 146.31 202.09 148.87 211.47 148.87C214.832 148.895 218.186 148.542 221.47 147.82C231.39 145.6 241.8 137.31 252.81 128.55C261.61 121.55 274.08 112.71 283.63 110.11C286.434 109.363 289.319 108.967 292.22 108.93C292.958 108.932 293.696 108.972 294.43 109.05C300.76 109.86 306.85 112.05 317.75 120.18C337.18 134.78 423.14 209.98 423.99 210.72C425.701 212.338 427.046 214.303 427.936 216.482C428.826 218.662 429.24 221.007 429.15 223.36C428.95 227.75 426.51 231.64 422.28 234.36C418.933 236.585 415.018 237.803 411 237.87C407.462 237.87 403.996 236.872 401 234.99C400.68 234.73 371.24 207.72 360.4 198.64C358.68 197.21 356.99 195.92 355.31 195.92C354.877 195.914 354.449 196.006 354.058 196.189C353.666 196.373 353.322 196.643 353.05 196.98C351.34 199.09 353.25 201.98 355.51 203.91L389.91 238.49C389.91 238.54 394.2 242.49 394.66 247.82C394.94 253.55 392.19 258.34 386.49 262.08C382.909 264.591 378.663 265.983 374.29 266.08C370.8 266.063 367.392 265.02 364.49 263.08L359.55 258.21C350.55 249.34 341.22 240.21 334.41 234.47C332.74 233.09 330.96 231.81 329.27 231.81C328.866 231.808 328.465 231.887 328.092 232.043C327.719 232.2 327.382 232.43 327.1 232.72C326.33 233.6 325.78 235.15 327.72 237.72C328.249 238.408 328.831 239.053 329.46 239.65L354.56 267.86C354.78 268.11 359.74 273.99 355.13 279.86L354.24 280.99C353.514 281.788 352.735 282.536 351.91 283.23C347.62 286.75 341.91 287.12 339.64 287.12C338.504 287.13 337.369 287.036 336.25 286.84C333.77 286.4 332.11 285.7 331.3 284.75L331 284.44C329.63 283.02 317 270.1 306.5 261.35C305.12 260.2 303.4 258.75 301.61 258.75C301.184 258.747 300.762 258.834 300.372 259.006C299.983 259.179 299.634 259.432 299.35 259.75C297.28 262.02 300.35 265.42 301.71 266.65L323.13 290.27C322.932 290.786 322.655 291.268 322.31 291.7C321.54 292.78 318.94 295.38 311.18 296.35C310.238 296.467 309.289 296.524 308.34 296.52C300.34 296.52 291.78 292.63 287.34 290.3C289.366 286.086 290.432 281.475 290.46 276.8C290.46 268.325 287.098 260.196 281.112 254.197C275.126 248.198 267.005 244.819 258.53 244.8H257.38C257.94 236.8 256.81 221.51 241.17 214.8C236.969 212.913 232.425 211.913 227.82 211.86C224.474 211.839 221.154 212.443 218.03 213.64C216.424 210.506 214.217 207.718 211.533 205.438C208.849 203.157 205.742 201.429 202.39 200.35C198.711 199.052 194.841 198.376 190.94 198.35C184.533 198.311 178.28 200.307 173.08 204.05C170.715 201.088 167.752 198.659 164.385 196.92C161.017 195.182 157.32 194.174 153.536 193.963C149.752 193.752 145.966 194.341 142.425 195.693C138.885 197.046 135.67 199.13 132.99 201.81C126.33 196.72 99.8699 179.92 29.1099 163.81C25.6899 163.03 17.8199 160.81 12.9999 159.36C12.2054 163.197 11.6046 167.072 11.2 170.97C11.2 170.97 24.1999 174.11 26.8199 174.69C99.0999 190.74 123 207.44 127.03 210.59C125.317 214.706 124.647 219.182 125.078 223.619C125.509 228.057 127.028 232.32 129.5 236.03C131.973 239.74 135.323 242.782 139.253 244.888C143.183 246.993 147.571 248.097 152.03 248.1C153.707 248.108 155.381 247.958 157.03 247.65C159.29 258.65 166.48 266.97 177.47 271.25C180.548 272.46 183.823 273.094 187.13 273.12C189.211 273.121 191.283 272.862 193.3 272.35C195.3 277.51 199.89 283.93 210.11 288.07C213.478 289.483 217.088 290.23 220.74 290.27C223.559 290.272 226.355 289.774 229 288.8C231.003 293.703 234.194 298.031 238.287 301.393C242.38 304.755 247.245 307.045 252.444 308.057C257.643 309.069 263.012 308.771 268.067 307.19C273.122 305.609 277.704 302.794 281.4 299C286.55 301.87 297.4 307.06 308.4 307.07C309.767 307.061 311.133 306.974 312.49 306.81C323.42 305.43 328.49 301.15 330.84 297.81C331.263 297.225 331.637 296.606 331.96 295.96C334.771 296.821 337.69 297.275 340.63 297.31C346.63 297.31 352.32 295.31 358.1 291.07C363.88 286.83 367.83 281.07 368.41 276.07C368.42 275.994 368.42 275.916 368.41 275.84C370.334 276.239 372.295 276.44 374.26 276.44C380.692 276.367 386.958 274.383 392.26 270.74C403.4 263.45 405.33 253.91 405.15 247.66C407.1 248.071 409.087 248.279 411.08 248.28C417.067 248.211 422.908 246.416 427.9 243.11C431.206 241.087 433.987 238.312 436.017 235.01C438.047 231.708 439.267 227.973 439.58 224.11C439.996 218.725 438.701 213.346 435.88 208.74C454.53 200.74 497.18 185.14 547.39 173.82C547.062 169.939 546.538 166.078 545.82 162.25C505.535 171.155 466.205 183.935 428.38 200.41" fill="#2D3277"/>
</svg>
